<svg width="24" height="10" viewBox="0 0 24 10" fill="none" xmlns="http://www.w3.org/2000/svg">
<g clip-path="url(#clip0_2019_174)">
<path d="M15.7239 4.25306C14.9479 5.61906 14.7919 5.75306 14.5709 5.66406C14.3099 5.56006 14.3999 4.19206 14.6379 2.53006C14.7049 2.06606 14.8209 1.84606 14.9499 1.73406C15.1359 1.57606 15.4739 1.56906 15.7019 1.60306C15.9649 1.64106 16.2159 1.76306 16.4059 1.94706C16.5739 2.11006 16.5929 2.27706 16.5359 2.49306C16.4419 2.83706 16.2799 3.16706 16.1249 3.48906C16.0889 3.56806 15.7669 4.17806 15.7239 4.25306V4.25306ZM14.3139 6.28706C14.2202 6.3168 14.1358 6.37028 14.0689 6.4423C14.0019 6.51431 13.9548 6.60242 13.9319 6.69806C13.9074 6.78986 13.908 6.88657 13.9337 6.97805C13.9594 7.06953 14.0092 7.15243 14.0779 7.21806C14.15 7.2853 14.2421 7.32708 14.3402 7.33702C14.4382 7.34695 14.5369 7.32448 14.6209 7.27306C14.6743 7.23784 14.7202 7.1924 14.7559 7.13937C14.7916 7.08633 14.8164 7.02675 14.8289 6.96406C14.9089 6.62806 14.7359 6.17006 14.3149 6.28706H14.3139ZM9.30394 5.04806C9.45794 5.70406 9.44194 6.42506 9.30994 6.94406C9.18694 7.43406 8.85194 7.87406 8.32094 8.02006C7.85494 8.15006 7.31194 8.05506 6.97994 7.73506C6.43194 7.21006 6.11194 5.97706 6.25494 5.08206C6.36994 4.36406 6.75794 3.44406 7.60694 3.40406C7.66127 3.40106 7.71575 3.40206 7.76994 3.40706C8.63594 3.48506 9.10994 4.21506 9.30394 5.04806V5.04806ZM8.15094 5.39806C8.11094 5.27193 8.04054 5.15757 7.94594 5.06506C7.60194 4.75106 7.25794 5.07806 7.19794 5.45106C7.15194 5.74206 7.21894 6.08106 7.40094 6.31606C7.48265 6.42879 7.60171 6.50888 7.73694 6.54206C7.78477 6.55103 7.83402 6.54898 7.88094 6.53606C8.04294 6.49006 8.13594 6.32106 8.17894 6.15806C8.24582 5.90762 8.23607 5.64289 8.15094 5.39806V5.39806ZM12.9509 5.53006C12.6179 6.03806 11.6109 6.40606 11.1789 6.37406V6.44006C11.1769 7.65206 11.2989 8.58006 10.7659 8.69006C10.3339 8.77706 10.3479 8.39806 10.3159 8.08006C10.1869 6.84506 10.0699 4.79506 10.0199 3.55406C10.0549 3.02106 10.4119 2.69406 10.7839 2.61406C11.3569 2.49106 11.9689 2.52606 12.4759 2.84006C13.4789 3.46006 13.5589 4.60006 12.9509 5.53006V5.53006ZM11.9089 4.26406C11.8319 4.02406 11.5939 3.68006 11.3069 3.72306C11.2449 3.73306 11.1419 3.76106 11.1129 3.82206C11.0439 3.96406 11.0489 4.86906 11.1689 5.24706C11.1889 5.30906 11.2309 5.36906 11.2939 5.39106C11.5209 5.47406 11.7259 5.19606 11.8189 5.02806C11.8851 4.91353 11.9273 4.78671 11.9427 4.65534C11.9582 4.52397 11.9467 4.39082 11.9089 4.26406V4.26406ZM5.51994 2.69006C5.65494 3.30006 5.62694 3.92406 5.43894 4.32506C5.06294 5.12006 4.43794 5.75206 3.57394 6.06506C3.82194 6.71206 4.07394 7.35306 4.32194 8.00006C4.45994 8.35006 4.59094 8.73206 4.47094 9.07606C4.34594 9.42806 3.85894 9.52605 3.50594 9.15105C2.82594 8.42705 0.52594 3.84306 0.35594 3.49906C0.21094 3.20206 -0.00405985 2.88506 0.00094015 2.54206C0.0119401 2.02606 0.80894 1.50506 1.19194 1.23706C1.72694 0.864056 2.34494 0.609056 3.00594 0.607056C3.52194 0.607056 3.96194 0.749056 4.35294 0.999056C4.94974 1.38675 5.36919 1.99454 5.51994 2.69006ZM3.68694 3.45306C3.54532 2.96192 3.25842 2.52512 2.86394 2.20006C2.78276 2.12745 2.68884 2.07049 2.58694 2.03206C1.86994 1.79706 2.17994 2.99606 2.29694 3.29806C2.45894 3.72206 2.70394 4.25806 3.03194 4.57806C3.10394 4.64806 3.18894 4.71206 3.28694 4.73106C3.43594 4.76106 3.57394 4.65706 3.64894 4.53606C3.70566 4.43167 3.73974 4.3165 3.74894 4.19806C3.77498 3.94797 3.75361 3.69522 3.68594 3.45306H3.68694ZM22.8609 7.70906C22.5059 7.65906 22.3049 7.59206 22.3049 7.35406C22.3049 7.11106 22.6149 6.97506 22.9049 6.97106C23.0379 6.96806 23.2129 6.99106 23.3829 7.07206L23.4099 7.42706H23.8309C23.8309 7.21106 23.8339 7.08306 23.8339 6.86706C23.5059 6.60406 23.2479 6.54706 22.8849 6.55506C22.4349 6.55506 21.8269 6.82206 21.8269 7.35906C21.8269 7.96106 22.2589 8.09206 22.7969 8.14706C23.1109 8.17906 23.5019 8.24006 23.5129 8.53806C23.5129 8.86606 23.1629 8.95106 22.8259 8.95106C22.636 8.94709 22.4496 8.89844 22.2819 8.80906L22.2519 8.44206H21.8169C21.8199 8.51806 21.8179 8.95206 21.8169 9.02806C22.1449 9.31406 22.4039 9.39105 22.8189 9.39005C23.3629 9.39005 23.9969 9.21206 24.0009 8.53706C23.9989 7.91706 23.4399 7.78706 22.8609 7.70906V7.70906ZM21.8159 9.02706C21.8159 9.04406 21.8159 9.04206 21.8159 9.02706V9.02706ZM21.4179 7.98106C21.4149 8.68406 20.9859 9.38705 20.0399 9.38705C19.0939 9.38705 18.6539 8.69506 18.6539 7.98906C18.6539 7.10906 19.2669 6.56406 20.0599 6.56406C20.9779 6.57206 21.4259 7.25406 21.4179 7.98106V7.98106ZM20.9399 7.98106C20.9479 7.50606 20.6969 7.01906 20.0599 7.00806C19.4649 7.00806 19.1319 7.42106 19.1299 7.98506C19.1299 8.47506 19.4029 8.93506 20.0479 8.93506C20.6929 8.93506 20.9399 8.43606 20.9399 7.98006V7.98106ZM17.8439 8.91506H15.2699C15.2108 8.91506 15.1541 8.93855 15.1123 8.98037C15.0704 9.02219 15.0469 9.07891 15.0469 9.13806V9.15806C15.0469 9.28006 15.1459 9.38005 15.2699 9.38005H17.8429C17.9021 9.38005 17.9588 9.35656 18.0006 9.31474C18.0424 9.27292 18.0659 9.2162 18.0659 9.15705V9.13806C18.0661 9.10873 18.0604 9.07968 18.0492 9.05256C18.0381 9.02545 18.0217 9.00081 18.0009 8.98008C17.9802 8.95934 17.9556 8.94292 17.9284 8.93176C17.9013 8.9206 17.8723 8.91492 17.8429 8.91506H17.8439Z" fill="#48B9C7"/>
</g>
<defs>
<clipPath id="clip0_2019_174">
<rect width="24.001" height="10" fill="white"/>
</clipPath>
</defs>
</svg>
